# xmcd
#
# Track frame offsets:
#  150
#  30857
#  60337
#  94842
#  120062
#  157662
#  196527
#  238837
#  276712
#
# Disc length: 4182 seconds
#
# Revision: 2
# Processed by: cddbd v1.5.2PL0 Copyright (c) Steve Scherf et al.
# Submitted via: Collectorz.com Music Collector 6.9
#
DISCID=61105409
DTITLE=Nicolas Simion Quartett - Dinner for Don Carlos
DYEAR=1993
DGENRE=Jazz
TTITLE0=Don Carlos
TTITLE1=Monsieur Ornette
TTITLE2=Ciaconna for Chett
TTITLE3=Nicolas' Blues
TTITLE4=One for Mihai # One
TTITLE5=Open windows
TTITLE6=Relaxin' with Lonnie
TTITLE7=Go-Go
TTITLE8=One for Mihai # Two
EXTD=
EXTT0=
EXTT1=
EXTT2=
EXTT3=
EXTT4=
EXTT5=
EXTT6=
EXTT7=
EXTT8=
PLAYORDER=
